<svg xmlns="http://www.w3.org/2000/svg" xmlns:xlink="http://www.w3.org/1999/xlink" width="40" zoomAndPan="magnify" viewBox="0 0 30 30.000001" height="40" preserveAspectRatio="xMidYMid meet" version="1.0"><defs><g/></defs><g fill="#000000" fill-opacity="1"><g transform="translate(3.9649, 19.331465)"><g><path d="M 9.46875 0 L 9.453125 -5.515625 L 6.734375 -0.96875 L 5.78125 -0.96875 L 3.09375 -5.40625 L 3.09375 0 L 1.09375 0 L 1.09375 -9.203125 L 2.84375 -9.203125 L 6.296875 -3.484375 L 9.6875 -9.203125 L 11.4375 -9.203125 L 11.453125 0 Z M 9.46875 0 "/></g></g></g><g fill="#5ecb53" fill-opacity="1"><g transform="translate(16.519083, 19.331465)"><g><path d="M 5.5 0.15625 C 4.5625 0.15625 3.710938 -0.046875 2.953125 -0.453125 C 2.191406 -0.859375 1.59375 -1.421875 1.15625 -2.140625 C 0.726562 -2.867188 0.515625 -3.6875 0.515625 -4.59375 C 0.515625 -5.507812 0.726562 -6.328125 1.15625 -7.046875 C 1.59375 -7.773438 2.191406 -8.34375 2.953125 -8.75 C 3.710938 -9.15625 4.5625 -9.359375 5.5 -9.359375 C 6.300781 -9.359375 7.023438 -9.21875 7.671875 -8.9375 C 8.316406 -8.65625 8.859375 -8.253906 9.296875 -7.734375 L 7.921875 -6.46875 C 7.296875 -7.1875 6.523438 -7.546875 5.609375 -7.546875 C 5.035156 -7.546875 4.523438 -7.421875 4.078125 -7.171875 C 3.640625 -6.921875 3.296875 -6.570312 3.046875 -6.125 C 2.796875 -5.675781 2.671875 -5.164062 2.671875 -4.59375 C 2.671875 -4.03125 2.796875 -3.523438 3.046875 -3.078125 C 3.296875 -2.628906 3.640625 -2.28125 4.078125 -2.03125 C 4.523438 -1.78125 5.035156 -1.65625 5.609375 -1.65625 C 6.523438 -1.65625 7.296875 -2.019531 7.921875 -2.75 L 9.296875 -1.484375 C 8.859375 -0.953125 8.3125 -0.546875 7.65625 -0.265625 C 7.007812 0.015625 6.289062 0.15625 5.5 0.15625 Z M 5.5 0.15625 "/></g></g></g></svg>